<svg width="44" height="41" viewBox="0 0 44 41" fill="none" xmlns="http://www.w3.org/2000/svg">
<path d="M22.0975 10.3799V6.10352e-05" stroke="#1A091A" stroke-width="0.382243" stroke-miterlimit="10"/>
<path d="M22.0975 40.696V30.3157" stroke="#1A091A" stroke-width="0.382243" stroke-miterlimit="10"/>
<path d="M22.0975 27.779C26.1655 27.779 29.4633 24.4812 29.4633 20.4132C29.4633 16.3452 26.1655 13.0474 22.0975 13.0474C18.0295 13.0474 14.7317 16.3452 14.7317 20.4132C14.7317 24.4812 18.0295 27.779 22.0975 27.779Z" fill="#1A091A" stroke="#1A091A" stroke-width="0.0477803" stroke-miterlimit="10"/>
<path d="M9.7267 13.432C6.73804 14.4392 4.71406 17.2602 4.71645 20.4132C4.71884 23.5643 6.74473 26.3805 9.73195 27.3848C9.44431 27.479 5.84072 28.5879 2.79664 26.1903C0.0411497 24.0201 -0.00137489 20.7529 5.85188e-05 20.4132C0.0148704 16.9004 2.56777 14.8716 2.90462 14.6136C5.91287 12.3073 9.39654 13.3288 9.7267 13.432Z" fill="#1A091A"/>
<path d="M34.2739 13.4249C37.2625 14.4321 39.2865 17.253 39.2841 20.406C39.2817 23.5571 37.2558 26.3733 34.2686 27.3777C34.5563 27.4718 38.1598 28.5808 41.2039 26.1832C43.9589 24.013 44.0015 20.7458 44 20.406C43.9852 16.8932 41.4323 14.8645 41.0955 14.6065C38.0872 12.3001 34.6036 13.3216 34.2734 13.4249H34.2739Z" fill="#1A091A"/>
</svg>
