<?xml version="1.0" standalone="no"?>
<!DOCTYPE svg PUBLIC "-//W3C//DTD SVG 20010904//EN"
 "http://www.w3.org/TR/2001/REC-SVG-20010904/DTD/svg10.dtd">
<svg version="1.0" xmlns="http://www.w3.org/2000/svg"
 width="704.000000pt" height="704.000000pt" viewBox="0 0 704.000000 704.000000"
 preserveAspectRatio="xMidYMid meet">
<metadata>
Created by potrace 1.14, written by Peter Selinger 2001-2017
</metadata>
<g transform="translate(0.000000,704.000000) scale(0.100000,-0.100000)"
fill="#000000" stroke="none">
<path d="M3502 5973 l3 -828 33 -3 32 -3 0 830 0 831 -35 0 -35 0 2 -827z"/>
<path d="M3412 4709 c-450 -43 -847 -363 -998 -803 -84 -243 -77 -540 18 -792
131 -349 433 -623 789 -719 417 -112 845 2 1149 305 413 411 463 1066 118
1532 -206 278 -503 445 -847 478 -115 11 -109 11 -229 -1z"/>
<path d="M990 4685 c-247 -39 -470 -155 -642 -333 -188 -195 -290 -394 -334
-652 -33 -192 2 -436 93 -647 168 -388 536 -648 965 -682 120 -10 274 -1 388
23 41 9 76 16 78 16 1 0 2 5 2 10 0 6 -5 10 -11 10 -6 0 -49 18 -96 40 -340
159 -586 478 -658 852 -21 109 -21 317 0 426 72 374 319 693 661 853 45 22 87
39 93 39 6 0 11 4 11 8 0 10 -73 27 -175 42 -96 13 -272 11 -375 -5z"/>
<path d="M5665 4690 c-94 -14 -165 -31 -165 -41 0 -5 6 -9 13 -9 7 0 51 -18
97 -41 282 -136 494 -369 606 -666 85 -225 88 -530 7 -771 -102 -307 -354
-582 -645 -704 -43 -18 -78 -36 -78 -39 0 -3 35 -14 78 -24 113 -26 372 -32
495 -11 426 72 763 364 901 778 145 434 41 862 -292 1201 -222 226 -506 339
-841 336 -69 -1 -148 -5 -176 -9z"/>
<path d="M3505 1938 c-3 -7 -4 -380 -3 -828 l3 -815 33 -3 32 -3 0 830 0 831
-30 0 c-17 0 -33 -6 -35 -12z"/>
</g>
</svg>
